<?xml version="1.0" encoding="UTF-8"?>
<svg width="89.393mm" height="88.477mm" version="1.1" viewBox="0 0 89.393 88.477" xml:space="preserve" xmlns="http://www.w3.org/2000/svg"><g transform="translate(-56.212 -102.06)"><g><rect x="61.316" y="107.04" width="84.089" height="83.302" rx="13.4" fill="#fb9c1a" stroke="#000" stroke-width=".4"/><rect x="58.256" y="104.11" width="84.089" height="83.302" rx="13.4"/><rect x="56.362" y="102.21" width="84.089" height="83.302" rx="13.4" fill="#feefe8" stroke="#000" stroke-width=".3"/></g><path d="m85.029 166.27v-16.415h-8.5752v16.415zm10.209-24.193v25.278q0 4.5221-2.3593 6.7379-2.3139 2.1706-7.1233 2.1706h-19.51v-64.259h20.372q4.0834 0 6.352 2.3063 2.2686 2.3062 2.2686 6.4666v13.521q0 3.2559-1.0889 5.1099-1.0889 1.854-3.4482 2.668zm-10.209-3.0298v-17.139h-8.5752v17.139zm36.705 27.223v-16.415h-8.5752v16.415zm10.209-24.193v25.278q0 4.5221-2.3593 6.7379-2.314 2.1706-7.1233 2.1706h-19.51v-64.259h20.372q4.0834 0 6.352 2.3063 2.2686 2.3062 2.2686 6.4666v13.521q0 3.2559-1.0889 5.1099-1.0889 1.854-3.4482 2.668zm-10.209-3.0298v-17.139h-8.5752v17.139z" fill="#0f172a" stroke-width=".60436" aria-label="BB"/></g></svg>
